<mxfile host="app.diagrams.net" modified="2021-06-08T18:52:50.319Z" agent="5.0 (Windows NT 10.0; Win64; x64) AppleWebKit/537.36 (KHTML, like Gecko) Chrome/91.0.4472.77 Safari/537.36" etag="H4nGNVrVBhHwqskRf3fL" version="14.7.0" type="github">
  <diagram id="R2lEEEUBdFMjLlhIrx00" name="Page-1">
    <mxGraphModel dx="702" dy="793" grid="1" gridSize="10" guides="1" tooltips="1" connect="1" arrows="1" fold="1" page="1" pageScale="1" pageWidth="850" pageHeight="1100" math="0" shadow="0" extFonts="Permanent Marker^https://fonts.googleapis.com/css?family=Permanent+Marker">
      <root>
        <mxCell id="0" />
        <mxCell id="1" parent="0" />
        <mxCell id="C-vyLk0tnHw3VtMMgP7b-2" value="SalesOrderHeader" style="shape=table;startSize=30;container=1;collapsible=1;childLayout=tableLayout;fixedRows=1;rowLines=0;fontStyle=1;align=center;resizeLast=1;" parent="1" vertex="1">
          <mxGeometry x="370" y="280" width="190" height="210" as="geometry" />
        </mxCell>
        <mxCell id="C-vyLk0tnHw3VtMMgP7b-3" value="" style="shape=partialRectangle;collapsible=0;dropTarget=0;pointerEvents=0;fillColor=none;points=[[0,0.5],[1,0.5]];portConstraint=eastwest;top=0;left=0;right=0;bottom=1;" parent="C-vyLk0tnHw3VtMMgP7b-2" vertex="1">
          <mxGeometry y="30" width="190" height="30" as="geometry" />
        </mxCell>
        <mxCell id="C-vyLk0tnHw3VtMMgP7b-4" value="PK" style="shape=partialRectangle;overflow=hidden;connectable=0;fillColor=none;top=0;left=0;bottom=0;right=0;fontStyle=1;" parent="C-vyLk0tnHw3VtMMgP7b-3" vertex="1">
          <mxGeometry width="30" height="30" as="geometry" />
        </mxCell>
        <mxCell id="C-vyLk0tnHw3VtMMgP7b-5" value="SalesOrderID" style="shape=partialRectangle;overflow=hidden;connectable=0;fillColor=none;top=0;left=0;bottom=0;right=0;align=left;spacingLeft=6;fontStyle=5;" parent="C-vyLk0tnHw3VtMMgP7b-3" vertex="1">
          <mxGeometry x="30" width="160" height="30" as="geometry" />
        </mxCell>
        <mxCell id="C-vyLk0tnHw3VtMMgP7b-6" value="" style="shape=partialRectangle;collapsible=0;dropTarget=0;pointerEvents=0;fillColor=none;points=[[0,0.5],[1,0.5]];portConstraint=eastwest;top=0;left=0;right=0;bottom=0;" parent="C-vyLk0tnHw3VtMMgP7b-2" vertex="1">
          <mxGeometry y="60" width="190" height="30" as="geometry" />
        </mxCell>
        <mxCell id="C-vyLk0tnHw3VtMMgP7b-7" value="FK1" style="shape=partialRectangle;overflow=hidden;connectable=0;fillColor=none;top=0;left=0;bottom=0;right=0;" parent="C-vyLk0tnHw3VtMMgP7b-6" vertex="1">
          <mxGeometry width="30" height="30" as="geometry" />
        </mxCell>
        <mxCell id="C-vyLk0tnHw3VtMMgP7b-8" value="BusinessEntityID" style="shape=partialRectangle;overflow=hidden;connectable=0;fillColor=none;top=0;left=0;bottom=0;right=0;align=left;spacingLeft=6;" parent="C-vyLk0tnHw3VtMMgP7b-6" vertex="1">
          <mxGeometry x="30" width="160" height="30" as="geometry" />
        </mxCell>
        <mxCell id="C-vyLk0tnHw3VtMMgP7b-9" value="" style="shape=partialRectangle;collapsible=0;dropTarget=0;pointerEvents=0;fillColor=none;points=[[0,0.5],[1,0.5]];portConstraint=eastwest;top=0;left=0;right=0;bottom=0;" parent="C-vyLk0tnHw3VtMMgP7b-2" vertex="1">
          <mxGeometry y="90" width="190" height="30" as="geometry" />
        </mxCell>
        <mxCell id="C-vyLk0tnHw3VtMMgP7b-10" value="" style="shape=partialRectangle;overflow=hidden;connectable=0;fillColor=none;top=0;left=0;bottom=0;right=0;" parent="C-vyLk0tnHw3VtMMgP7b-9" vertex="1">
          <mxGeometry width="30" height="30" as="geometry" />
        </mxCell>
        <mxCell id="C-vyLk0tnHw3VtMMgP7b-11" value="CustomerID" style="shape=partialRectangle;overflow=hidden;connectable=0;fillColor=none;top=0;left=0;bottom=0;right=0;align=left;spacingLeft=6;" parent="C-vyLk0tnHw3VtMMgP7b-9" vertex="1">
          <mxGeometry x="30" width="160" height="30" as="geometry" />
        </mxCell>
        <mxCell id="pVQqcOyzo2fwdFW1ploU-11" value="" style="shape=partialRectangle;collapsible=0;dropTarget=0;pointerEvents=0;fillColor=none;points=[[0,0.5],[1,0.5]];portConstraint=eastwest;top=0;left=0;right=0;bottom=0;" vertex="1" parent="C-vyLk0tnHw3VtMMgP7b-2">
          <mxGeometry y="120" width="190" height="30" as="geometry" />
        </mxCell>
        <mxCell id="pVQqcOyzo2fwdFW1ploU-12" value="" style="shape=partialRectangle;overflow=hidden;connectable=0;fillColor=none;top=0;left=0;bottom=0;right=0;" vertex="1" parent="pVQqcOyzo2fwdFW1ploU-11">
          <mxGeometry width="30" height="30" as="geometry" />
        </mxCell>
        <mxCell id="pVQqcOyzo2fwdFW1ploU-13" value="CreditCardID" style="shape=partialRectangle;overflow=hidden;connectable=0;fillColor=none;top=0;left=0;bottom=0;right=0;align=left;spacingLeft=6;" vertex="1" parent="pVQqcOyzo2fwdFW1ploU-11">
          <mxGeometry x="30" width="160" height="30" as="geometry" />
        </mxCell>
        <mxCell id="pVQqcOyzo2fwdFW1ploU-14" value="" style="shape=partialRectangle;collapsible=0;dropTarget=0;pointerEvents=0;fillColor=none;points=[[0,0.5],[1,0.5]];portConstraint=eastwest;top=0;left=0;right=0;bottom=0;" vertex="1" parent="C-vyLk0tnHw3VtMMgP7b-2">
          <mxGeometry y="150" width="190" height="30" as="geometry" />
        </mxCell>
        <mxCell id="pVQqcOyzo2fwdFW1ploU-15" value="" style="shape=partialRectangle;overflow=hidden;connectable=0;fillColor=none;top=0;left=0;bottom=0;right=0;" vertex="1" parent="pVQqcOyzo2fwdFW1ploU-14">
          <mxGeometry width="30" height="30" as="geometry" />
        </mxCell>
        <mxCell id="pVQqcOyzo2fwdFW1ploU-16" value="ShipToAddressID" style="shape=partialRectangle;overflow=hidden;connectable=0;fillColor=none;top=0;left=0;bottom=0;right=0;align=left;spacingLeft=6;" vertex="1" parent="pVQqcOyzo2fwdFW1ploU-14">
          <mxGeometry x="30" width="160" height="30" as="geometry" />
        </mxCell>
        <mxCell id="pVQqcOyzo2fwdFW1ploU-17" value="" style="shape=partialRectangle;collapsible=0;dropTarget=0;pointerEvents=0;fillColor=none;points=[[0,0.5],[1,0.5]];portConstraint=eastwest;top=0;left=0;right=0;bottom=0;" vertex="1" parent="C-vyLk0tnHw3VtMMgP7b-2">
          <mxGeometry y="180" width="190" height="30" as="geometry" />
        </mxCell>
        <mxCell id="pVQqcOyzo2fwdFW1ploU-18" value="" style="shape=partialRectangle;overflow=hidden;connectable=0;fillColor=none;top=0;left=0;bottom=0;right=0;" vertex="1" parent="pVQqcOyzo2fwdFW1ploU-17">
          <mxGeometry width="30" height="30" as="geometry" />
        </mxCell>
        <mxCell id="pVQqcOyzo2fwdFW1ploU-19" value="..." style="shape=partialRectangle;overflow=hidden;connectable=0;fillColor=none;top=0;left=0;bottom=0;right=0;align=left;spacingLeft=6;" vertex="1" parent="pVQqcOyzo2fwdFW1ploU-17">
          <mxGeometry x="30" width="160" height="30" as="geometry" />
        </mxCell>
        <mxCell id="C-vyLk0tnHw3VtMMgP7b-23" value="Customer" style="shape=table;startSize=30;container=1;collapsible=1;childLayout=tableLayout;fixedRows=1;rowLines=0;fontStyle=1;align=center;resizeLast=1;" parent="1" vertex="1">
          <mxGeometry x="60" y="540" width="210" height="120" as="geometry" />
        </mxCell>
        <mxCell id="C-vyLk0tnHw3VtMMgP7b-24" value="" style="shape=partialRectangle;collapsible=0;dropTarget=0;pointerEvents=0;fillColor=none;points=[[0,0.5],[1,0.5]];portConstraint=eastwest;top=0;left=0;right=0;bottom=1;" parent="C-vyLk0tnHw3VtMMgP7b-23" vertex="1">
          <mxGeometry y="30" width="210" height="30" as="geometry" />
        </mxCell>
        <mxCell id="C-vyLk0tnHw3VtMMgP7b-25" value="PK" style="shape=partialRectangle;overflow=hidden;connectable=0;fillColor=none;top=0;left=0;bottom=0;right=0;fontStyle=1;" parent="C-vyLk0tnHw3VtMMgP7b-24" vertex="1">
          <mxGeometry width="30" height="30" as="geometry" />
        </mxCell>
        <mxCell id="C-vyLk0tnHw3VtMMgP7b-26" value="CustomerID" style="shape=partialRectangle;overflow=hidden;connectable=0;fillColor=none;top=0;left=0;bottom=0;right=0;align=left;spacingLeft=6;fontStyle=5;" parent="C-vyLk0tnHw3VtMMgP7b-24" vertex="1">
          <mxGeometry x="30" width="180" height="30" as="geometry" />
        </mxCell>
        <mxCell id="pVQqcOyzo2fwdFW1ploU-8" value="" style="shape=partialRectangle;collapsible=0;dropTarget=0;pointerEvents=0;fillColor=none;points=[[0,0.5],[1,0.5]];portConstraint=eastwest;top=0;left=0;right=0;bottom=1;" vertex="1" parent="C-vyLk0tnHw3VtMMgP7b-23">
          <mxGeometry y="60" width="210" height="30" as="geometry" />
        </mxCell>
        <mxCell id="pVQqcOyzo2fwdFW1ploU-9" value="FK2" style="shape=partialRectangle;overflow=hidden;connectable=0;fillColor=none;top=0;left=0;bottom=0;right=0;fontStyle=1;" vertex="1" parent="pVQqcOyzo2fwdFW1ploU-8">
          <mxGeometry width="30" height="30" as="geometry" />
        </mxCell>
        <mxCell id="pVQqcOyzo2fwdFW1ploU-10" value="PersonID" style="shape=partialRectangle;overflow=hidden;connectable=0;fillColor=none;top=0;left=0;bottom=0;right=0;align=left;spacingLeft=6;fontStyle=5;" vertex="1" parent="pVQqcOyzo2fwdFW1ploU-8">
          <mxGeometry x="30" width="180" height="30" as="geometry" />
        </mxCell>
        <mxCell id="C-vyLk0tnHw3VtMMgP7b-27" value="" style="shape=partialRectangle;collapsible=0;dropTarget=0;pointerEvents=0;fillColor=none;points=[[0,0.5],[1,0.5]];portConstraint=eastwest;top=0;left=0;right=0;bottom=0;" parent="C-vyLk0tnHw3VtMMgP7b-23" vertex="1">
          <mxGeometry y="90" width="210" height="30" as="geometry" />
        </mxCell>
        <mxCell id="C-vyLk0tnHw3VtMMgP7b-28" value="" style="shape=partialRectangle;overflow=hidden;connectable=0;fillColor=none;top=0;left=0;bottom=0;right=0;" parent="C-vyLk0tnHw3VtMMgP7b-27" vertex="1">
          <mxGeometry width="30" height="30" as="geometry" />
        </mxCell>
        <mxCell id="C-vyLk0tnHw3VtMMgP7b-29" value="..." style="shape=partialRectangle;overflow=hidden;connectable=0;fillColor=none;top=0;left=0;bottom=0;right=0;align=left;spacingLeft=6;" parent="C-vyLk0tnHw3VtMMgP7b-27" vertex="1">
          <mxGeometry x="30" width="180" height="30" as="geometry" />
        </mxCell>
        <mxCell id="pVQqcOyzo2fwdFW1ploU-1" value="Address" style="shape=table;startSize=30;container=1;collapsible=1;childLayout=tableLayout;fixedRows=1;rowLines=0;fontStyle=1;align=center;resizeLast=1;" vertex="1" parent="1">
          <mxGeometry x="540" y="720" width="210" height="120" as="geometry" />
        </mxCell>
        <mxCell id="pVQqcOyzo2fwdFW1ploU-2" value="" style="shape=partialRectangle;collapsible=0;dropTarget=0;pointerEvents=0;fillColor=none;points=[[0,0.5],[1,0.5]];portConstraint=eastwest;top=0;left=0;right=0;bottom=1;" vertex="1" parent="pVQqcOyzo2fwdFW1ploU-1">
          <mxGeometry y="30" width="210" height="30" as="geometry" />
        </mxCell>
        <mxCell id="pVQqcOyzo2fwdFW1ploU-3" value="PK" style="shape=partialRectangle;overflow=hidden;connectable=0;fillColor=none;top=0;left=0;bottom=0;right=0;fontStyle=1;" vertex="1" parent="pVQqcOyzo2fwdFW1ploU-2">
          <mxGeometry width="30" height="30" as="geometry" />
        </mxCell>
        <mxCell id="pVQqcOyzo2fwdFW1ploU-4" value="AddressID" style="shape=partialRectangle;overflow=hidden;connectable=0;fillColor=none;top=0;left=0;bottom=0;right=0;align=left;spacingLeft=6;fontStyle=5;" vertex="1" parent="pVQqcOyzo2fwdFW1ploU-2">
          <mxGeometry x="30" width="180" height="30" as="geometry" />
        </mxCell>
        <mxCell id="pVQqcOyzo2fwdFW1ploU-5" value="" style="shape=partialRectangle;collapsible=0;dropTarget=0;pointerEvents=0;fillColor=none;points=[[0,0.5],[1,0.5]];portConstraint=eastwest;top=0;left=0;right=0;bottom=0;" vertex="1" parent="pVQqcOyzo2fwdFW1ploU-1">
          <mxGeometry y="60" width="210" height="30" as="geometry" />
        </mxCell>
        <mxCell id="pVQqcOyzo2fwdFW1ploU-6" value="" style="shape=partialRectangle;overflow=hidden;connectable=0;fillColor=none;top=0;left=0;bottom=0;right=0;" vertex="1" parent="pVQqcOyzo2fwdFW1ploU-5">
          <mxGeometry width="30" height="30" as="geometry" />
        </mxCell>
        <mxCell id="pVQqcOyzo2fwdFW1ploU-7" value="StateProvinceID" style="shape=partialRectangle;overflow=hidden;connectable=0;fillColor=none;top=0;left=0;bottom=0;right=0;align=left;spacingLeft=6;" vertex="1" parent="pVQqcOyzo2fwdFW1ploU-5">
          <mxGeometry x="30" width="180" height="30" as="geometry" />
        </mxCell>
        <mxCell id="pVQqcOyzo2fwdFW1ploU-87" value="" style="shape=partialRectangle;collapsible=0;dropTarget=0;pointerEvents=0;fillColor=none;points=[[0,0.5],[1,0.5]];portConstraint=eastwest;top=0;left=0;right=0;bottom=0;" vertex="1" parent="pVQqcOyzo2fwdFW1ploU-1">
          <mxGeometry y="90" width="210" height="30" as="geometry" />
        </mxCell>
        <mxCell id="pVQqcOyzo2fwdFW1ploU-88" value="" style="shape=partialRectangle;overflow=hidden;connectable=0;fillColor=none;top=0;left=0;bottom=0;right=0;" vertex="1" parent="pVQqcOyzo2fwdFW1ploU-87">
          <mxGeometry width="30" height="30" as="geometry" />
        </mxCell>
        <mxCell id="pVQqcOyzo2fwdFW1ploU-89" value="..." style="shape=partialRectangle;overflow=hidden;connectable=0;fillColor=none;top=0;left=0;bottom=0;right=0;align=left;spacingLeft=6;" vertex="1" parent="pVQqcOyzo2fwdFW1ploU-87">
          <mxGeometry x="30" width="180" height="30" as="geometry" />
        </mxCell>
        <mxCell id="pVQqcOyzo2fwdFW1ploU-20" value="SalesOrderDetail" style="shape=table;startSize=30;container=1;collapsible=1;childLayout=tableLayout;fixedRows=1;rowLines=0;fontStyle=1;align=center;resizeLast=1;" vertex="1" parent="1">
          <mxGeometry x="610" y="370" width="180" height="120" as="geometry" />
        </mxCell>
        <mxCell id="pVQqcOyzo2fwdFW1ploU-21" value="" style="shape=partialRectangle;collapsible=0;dropTarget=0;pointerEvents=0;fillColor=none;points=[[0,0.5],[1,0.5]];portConstraint=eastwest;top=0;left=0;right=0;bottom=1;" vertex="1" parent="pVQqcOyzo2fwdFW1ploU-20">
          <mxGeometry y="30" width="180" height="30" as="geometry" />
        </mxCell>
        <mxCell id="pVQqcOyzo2fwdFW1ploU-22" value="PK" style="shape=partialRectangle;overflow=hidden;connectable=0;fillColor=none;top=0;left=0;bottom=0;right=0;fontStyle=1;" vertex="1" parent="pVQqcOyzo2fwdFW1ploU-21">
          <mxGeometry width="30" height="30" as="geometry" />
        </mxCell>
        <mxCell id="pVQqcOyzo2fwdFW1ploU-23" value="SalesOrderDetailID" style="shape=partialRectangle;overflow=hidden;connectable=0;fillColor=none;top=0;left=0;bottom=0;right=0;align=left;spacingLeft=6;fontStyle=5;" vertex="1" parent="pVQqcOyzo2fwdFW1ploU-21">
          <mxGeometry x="30" width="150" height="30" as="geometry" />
        </mxCell>
        <mxCell id="pVQqcOyzo2fwdFW1ploU-24" value="" style="shape=partialRectangle;collapsible=0;dropTarget=0;pointerEvents=0;fillColor=none;points=[[0,0.5],[1,0.5]];portConstraint=eastwest;top=0;left=0;right=0;bottom=0;" vertex="1" parent="pVQqcOyzo2fwdFW1ploU-20">
          <mxGeometry y="60" width="180" height="30" as="geometry" />
        </mxCell>
        <mxCell id="pVQqcOyzo2fwdFW1ploU-25" value="" style="shape=partialRectangle;overflow=hidden;connectable=0;fillColor=none;top=0;left=0;bottom=0;right=0;" vertex="1" parent="pVQqcOyzo2fwdFW1ploU-24">
          <mxGeometry width="30" height="30" as="geometry" />
        </mxCell>
        <mxCell id="pVQqcOyzo2fwdFW1ploU-26" value="SalesOrderID" style="shape=partialRectangle;overflow=hidden;connectable=0;fillColor=none;top=0;left=0;bottom=0;right=0;align=left;spacingLeft=6;" vertex="1" parent="pVQqcOyzo2fwdFW1ploU-24">
          <mxGeometry x="30" width="150" height="30" as="geometry" />
        </mxCell>
        <mxCell id="pVQqcOyzo2fwdFW1ploU-27" value="" style="shape=partialRectangle;collapsible=0;dropTarget=0;pointerEvents=0;fillColor=none;points=[[0,0.5],[1,0.5]];portConstraint=eastwest;top=0;left=0;right=0;bottom=0;" vertex="1" parent="pVQqcOyzo2fwdFW1ploU-20">
          <mxGeometry y="90" width="180" height="30" as="geometry" />
        </mxCell>
        <mxCell id="pVQqcOyzo2fwdFW1ploU-28" value="" style="shape=partialRectangle;overflow=hidden;connectable=0;fillColor=none;top=0;left=0;bottom=0;right=0;" vertex="1" parent="pVQqcOyzo2fwdFW1ploU-27">
          <mxGeometry width="30" height="30" as="geometry" />
        </mxCell>
        <mxCell id="pVQqcOyzo2fwdFW1ploU-29" value="ProductID" style="shape=partialRectangle;overflow=hidden;connectable=0;fillColor=none;top=0;left=0;bottom=0;right=0;align=left;spacingLeft=6;" vertex="1" parent="pVQqcOyzo2fwdFW1ploU-27">
          <mxGeometry x="30" width="150" height="30" as="geometry" />
        </mxCell>
        <mxCell id="pVQqcOyzo2fwdFW1ploU-30" value="Product" style="shape=table;startSize=30;container=1;collapsible=1;childLayout=tableLayout;fixedRows=1;rowLines=0;fontStyle=1;align=center;resizeLast=1;" vertex="1" parent="1">
          <mxGeometry x="640" y="530" width="170" height="120" as="geometry" />
        </mxCell>
        <mxCell id="pVQqcOyzo2fwdFW1ploU-31" value="" style="shape=partialRectangle;collapsible=0;dropTarget=0;pointerEvents=0;fillColor=none;points=[[0,0.5],[1,0.5]];portConstraint=eastwest;top=0;left=0;right=0;bottom=1;" vertex="1" parent="pVQqcOyzo2fwdFW1ploU-30">
          <mxGeometry y="30" width="170" height="30" as="geometry" />
        </mxCell>
        <mxCell id="pVQqcOyzo2fwdFW1ploU-32" value="PK" style="shape=partialRectangle;overflow=hidden;connectable=0;fillColor=none;top=0;left=0;bottom=0;right=0;fontStyle=1;" vertex="1" parent="pVQqcOyzo2fwdFW1ploU-31">
          <mxGeometry width="30" height="30" as="geometry" />
        </mxCell>
        <mxCell id="pVQqcOyzo2fwdFW1ploU-33" value="ProductID" style="shape=partialRectangle;overflow=hidden;connectable=0;fillColor=none;top=0;left=0;bottom=0;right=0;align=left;spacingLeft=6;fontStyle=5;" vertex="1" parent="pVQqcOyzo2fwdFW1ploU-31">
          <mxGeometry x="30" width="140" height="30" as="geometry" />
        </mxCell>
        <mxCell id="pVQqcOyzo2fwdFW1ploU-34" value="" style="shape=partialRectangle;collapsible=0;dropTarget=0;pointerEvents=0;fillColor=none;points=[[0,0.5],[1,0.5]];portConstraint=eastwest;top=0;left=0;right=0;bottom=0;" vertex="1" parent="pVQqcOyzo2fwdFW1ploU-30">
          <mxGeometry y="60" width="170" height="30" as="geometry" />
        </mxCell>
        <mxCell id="pVQqcOyzo2fwdFW1ploU-35" value="" style="shape=partialRectangle;overflow=hidden;connectable=0;fillColor=none;top=0;left=0;bottom=0;right=0;" vertex="1" parent="pVQqcOyzo2fwdFW1ploU-34">
          <mxGeometry width="30" height="30" as="geometry" />
        </mxCell>
        <mxCell id="pVQqcOyzo2fwdFW1ploU-36" value="ProductName" style="shape=partialRectangle;overflow=hidden;connectable=0;fillColor=none;top=0;left=0;bottom=0;right=0;align=left;spacingLeft=6;" vertex="1" parent="pVQqcOyzo2fwdFW1ploU-34">
          <mxGeometry x="30" width="140" height="30" as="geometry" />
        </mxCell>
        <mxCell id="pVQqcOyzo2fwdFW1ploU-37" value="" style="shape=partialRectangle;collapsible=0;dropTarget=0;pointerEvents=0;fillColor=none;points=[[0,0.5],[1,0.5]];portConstraint=eastwest;top=0;left=0;right=0;bottom=0;" vertex="1" parent="pVQqcOyzo2fwdFW1ploU-30">
          <mxGeometry y="90" width="170" height="30" as="geometry" />
        </mxCell>
        <mxCell id="pVQqcOyzo2fwdFW1ploU-38" value="" style="shape=partialRectangle;overflow=hidden;connectable=0;fillColor=none;top=0;left=0;bottom=0;right=0;" vertex="1" parent="pVQqcOyzo2fwdFW1ploU-37">
          <mxGeometry width="30" height="30" as="geometry" />
        </mxCell>
        <mxCell id="pVQqcOyzo2fwdFW1ploU-39" value="..." style="shape=partialRectangle;overflow=hidden;connectable=0;fillColor=none;top=0;left=0;bottom=0;right=0;align=left;spacingLeft=6;" vertex="1" parent="pVQqcOyzo2fwdFW1ploU-37">
          <mxGeometry x="30" width="140" height="30" as="geometry" />
        </mxCell>
        <mxCell id="pVQqcOyzo2fwdFW1ploU-40" value="SalesOrderHeaderReason" style="shape=table;startSize=30;container=1;collapsible=1;childLayout=tableLayout;fixedRows=1;rowLines=0;fontStyle=1;align=center;resizeLast=1;" vertex="1" parent="1">
          <mxGeometry x="605" y="190" width="180" height="120" as="geometry" />
        </mxCell>
        <mxCell id="pVQqcOyzo2fwdFW1ploU-41" value="" style="shape=partialRectangle;collapsible=0;dropTarget=0;pointerEvents=0;fillColor=none;points=[[0,0.5],[1,0.5]];portConstraint=eastwest;top=0;left=0;right=0;bottom=1;" vertex="1" parent="pVQqcOyzo2fwdFW1ploU-40">
          <mxGeometry y="30" width="180" height="30" as="geometry" />
        </mxCell>
        <mxCell id="pVQqcOyzo2fwdFW1ploU-42" value="PK" style="shape=partialRectangle;overflow=hidden;connectable=0;fillColor=none;top=0;left=0;bottom=0;right=0;fontStyle=1;" vertex="1" parent="pVQqcOyzo2fwdFW1ploU-41">
          <mxGeometry width="30" height="30" as="geometry" />
        </mxCell>
        <mxCell id="pVQqcOyzo2fwdFW1ploU-43" value="BusinessEntityID" style="shape=partialRectangle;overflow=hidden;connectable=0;fillColor=none;top=0;left=0;bottom=0;right=0;align=left;spacingLeft=6;fontStyle=5;" vertex="1" parent="pVQqcOyzo2fwdFW1ploU-41">
          <mxGeometry x="30" width="150" height="30" as="geometry" />
        </mxCell>
        <mxCell id="pVQqcOyzo2fwdFW1ploU-44" value="" style="shape=partialRectangle;collapsible=0;dropTarget=0;pointerEvents=0;fillColor=none;points=[[0,0.5],[1,0.5]];portConstraint=eastwest;top=0;left=0;right=0;bottom=0;" vertex="1" parent="pVQqcOyzo2fwdFW1ploU-40">
          <mxGeometry y="60" width="180" height="30" as="geometry" />
        </mxCell>
        <mxCell id="pVQqcOyzo2fwdFW1ploU-45" value="" style="shape=partialRectangle;overflow=hidden;connectable=0;fillColor=none;top=0;left=0;bottom=0;right=0;" vertex="1" parent="pVQqcOyzo2fwdFW1ploU-44">
          <mxGeometry width="30" height="30" as="geometry" />
        </mxCell>
        <mxCell id="pVQqcOyzo2fwdFW1ploU-46" value="SalesOrderID" style="shape=partialRectangle;overflow=hidden;connectable=0;fillColor=none;top=0;left=0;bottom=0;right=0;align=left;spacingLeft=6;" vertex="1" parent="pVQqcOyzo2fwdFW1ploU-44">
          <mxGeometry x="30" width="150" height="30" as="geometry" />
        </mxCell>
        <mxCell id="pVQqcOyzo2fwdFW1ploU-47" value="" style="shape=partialRectangle;collapsible=0;dropTarget=0;pointerEvents=0;fillColor=none;points=[[0,0.5],[1,0.5]];portConstraint=eastwest;top=0;left=0;right=0;bottom=0;" vertex="1" parent="pVQqcOyzo2fwdFW1ploU-40">
          <mxGeometry y="90" width="180" height="30" as="geometry" />
        </mxCell>
        <mxCell id="pVQqcOyzo2fwdFW1ploU-48" value="" style="shape=partialRectangle;overflow=hidden;connectable=0;fillColor=none;top=0;left=0;bottom=0;right=0;" vertex="1" parent="pVQqcOyzo2fwdFW1ploU-47">
          <mxGeometry width="30" height="30" as="geometry" />
        </mxCell>
        <mxCell id="pVQqcOyzo2fwdFW1ploU-49" value="SalesReasonID" style="shape=partialRectangle;overflow=hidden;connectable=0;fillColor=none;top=0;left=0;bottom=0;right=0;align=left;spacingLeft=6;" vertex="1" parent="pVQqcOyzo2fwdFW1ploU-47">
          <mxGeometry x="30" width="150" height="30" as="geometry" />
        </mxCell>
        <mxCell id="pVQqcOyzo2fwdFW1ploU-50" value="SalesReason" style="shape=table;startSize=30;container=1;collapsible=1;childLayout=tableLayout;fixedRows=1;rowLines=0;fontStyle=1;align=center;resizeLast=1;" vertex="1" parent="1">
          <mxGeometry x="605" y="40" width="170" height="120" as="geometry" />
        </mxCell>
        <mxCell id="pVQqcOyzo2fwdFW1ploU-51" value="" style="shape=partialRectangle;collapsible=0;dropTarget=0;pointerEvents=0;fillColor=none;points=[[0,0.5],[1,0.5]];portConstraint=eastwest;top=0;left=0;right=0;bottom=1;" vertex="1" parent="pVQqcOyzo2fwdFW1ploU-50">
          <mxGeometry y="30" width="170" height="30" as="geometry" />
        </mxCell>
        <mxCell id="pVQqcOyzo2fwdFW1ploU-52" value="PK" style="shape=partialRectangle;overflow=hidden;connectable=0;fillColor=none;top=0;left=0;bottom=0;right=0;fontStyle=1;" vertex="1" parent="pVQqcOyzo2fwdFW1ploU-51">
          <mxGeometry width="30" height="30" as="geometry" />
        </mxCell>
        <mxCell id="pVQqcOyzo2fwdFW1ploU-53" value="SalesReasonID" style="shape=partialRectangle;overflow=hidden;connectable=0;fillColor=none;top=0;left=0;bottom=0;right=0;align=left;spacingLeft=6;fontStyle=5;" vertex="1" parent="pVQqcOyzo2fwdFW1ploU-51">
          <mxGeometry x="30" width="140" height="30" as="geometry" />
        </mxCell>
        <mxCell id="pVQqcOyzo2fwdFW1ploU-54" value="" style="shape=partialRectangle;collapsible=0;dropTarget=0;pointerEvents=0;fillColor=none;points=[[0,0.5],[1,0.5]];portConstraint=eastwest;top=0;left=0;right=0;bottom=0;" vertex="1" parent="pVQqcOyzo2fwdFW1ploU-50">
          <mxGeometry y="60" width="170" height="30" as="geometry" />
        </mxCell>
        <mxCell id="pVQqcOyzo2fwdFW1ploU-55" value="" style="shape=partialRectangle;overflow=hidden;connectable=0;fillColor=none;top=0;left=0;bottom=0;right=0;" vertex="1" parent="pVQqcOyzo2fwdFW1ploU-54">
          <mxGeometry width="30" height="30" as="geometry" />
        </mxCell>
        <mxCell id="pVQqcOyzo2fwdFW1ploU-56" value="Name" style="shape=partialRectangle;overflow=hidden;connectable=0;fillColor=none;top=0;left=0;bottom=0;right=0;align=left;spacingLeft=6;" vertex="1" parent="pVQqcOyzo2fwdFW1ploU-54">
          <mxGeometry x="30" width="140" height="30" as="geometry" />
        </mxCell>
        <mxCell id="pVQqcOyzo2fwdFW1ploU-57" value="" style="shape=partialRectangle;collapsible=0;dropTarget=0;pointerEvents=0;fillColor=none;points=[[0,0.5],[1,0.5]];portConstraint=eastwest;top=0;left=0;right=0;bottom=0;" vertex="1" parent="pVQqcOyzo2fwdFW1ploU-50">
          <mxGeometry y="90" width="170" height="30" as="geometry" />
        </mxCell>
        <mxCell id="pVQqcOyzo2fwdFW1ploU-58" value="" style="shape=partialRectangle;overflow=hidden;connectable=0;fillColor=none;top=0;left=0;bottom=0;right=0;" vertex="1" parent="pVQqcOyzo2fwdFW1ploU-57">
          <mxGeometry width="30" height="30" as="geometry" />
        </mxCell>
        <mxCell id="pVQqcOyzo2fwdFW1ploU-59" value="..." style="shape=partialRectangle;overflow=hidden;connectable=0;fillColor=none;top=0;left=0;bottom=0;right=0;align=left;spacingLeft=6;" vertex="1" parent="pVQqcOyzo2fwdFW1ploU-57">
          <mxGeometry x="30" width="140" height="30" as="geometry" />
        </mxCell>
        <mxCell id="pVQqcOyzo2fwdFW1ploU-60" value="CreditCard" style="shape=table;startSize=30;container=1;collapsible=1;childLayout=tableLayout;fixedRows=1;rowLines=0;fontStyle=1;align=center;resizeLast=1;" vertex="1" parent="1">
          <mxGeometry x="290" y="680" width="170" height="120" as="geometry" />
        </mxCell>
        <mxCell id="pVQqcOyzo2fwdFW1ploU-61" value="" style="shape=partialRectangle;collapsible=0;dropTarget=0;pointerEvents=0;fillColor=none;points=[[0,0.5],[1,0.5]];portConstraint=eastwest;top=0;left=0;right=0;bottom=1;" vertex="1" parent="pVQqcOyzo2fwdFW1ploU-60">
          <mxGeometry y="30" width="170" height="30" as="geometry" />
        </mxCell>
        <mxCell id="pVQqcOyzo2fwdFW1ploU-62" value="PK" style="shape=partialRectangle;overflow=hidden;connectable=0;fillColor=none;top=0;left=0;bottom=0;right=0;fontStyle=1;" vertex="1" parent="pVQqcOyzo2fwdFW1ploU-61">
          <mxGeometry width="30" height="30" as="geometry" />
        </mxCell>
        <mxCell id="pVQqcOyzo2fwdFW1ploU-63" value="CreditCardID" style="shape=partialRectangle;overflow=hidden;connectable=0;fillColor=none;top=0;left=0;bottom=0;right=0;align=left;spacingLeft=6;fontStyle=5;" vertex="1" parent="pVQqcOyzo2fwdFW1ploU-61">
          <mxGeometry x="30" width="140" height="30" as="geometry" />
        </mxCell>
        <mxCell id="pVQqcOyzo2fwdFW1ploU-64" value="" style="shape=partialRectangle;collapsible=0;dropTarget=0;pointerEvents=0;fillColor=none;points=[[0,0.5],[1,0.5]];portConstraint=eastwest;top=0;left=0;right=0;bottom=0;" vertex="1" parent="pVQqcOyzo2fwdFW1ploU-60">
          <mxGeometry y="60" width="170" height="30" as="geometry" />
        </mxCell>
        <mxCell id="pVQqcOyzo2fwdFW1ploU-65" value="" style="shape=partialRectangle;overflow=hidden;connectable=0;fillColor=none;top=0;left=0;bottom=0;right=0;" vertex="1" parent="pVQqcOyzo2fwdFW1ploU-64">
          <mxGeometry width="30" height="30" as="geometry" />
        </mxCell>
        <mxCell id="pVQqcOyzo2fwdFW1ploU-66" value="CardType" style="shape=partialRectangle;overflow=hidden;connectable=0;fillColor=none;top=0;left=0;bottom=0;right=0;align=left;spacingLeft=6;" vertex="1" parent="pVQqcOyzo2fwdFW1ploU-64">
          <mxGeometry x="30" width="140" height="30" as="geometry" />
        </mxCell>
        <mxCell id="pVQqcOyzo2fwdFW1ploU-67" value="" style="shape=partialRectangle;collapsible=0;dropTarget=0;pointerEvents=0;fillColor=none;points=[[0,0.5],[1,0.5]];portConstraint=eastwest;top=0;left=0;right=0;bottom=0;" vertex="1" parent="pVQqcOyzo2fwdFW1ploU-60">
          <mxGeometry y="90" width="170" height="30" as="geometry" />
        </mxCell>
        <mxCell id="pVQqcOyzo2fwdFW1ploU-68" value="" style="shape=partialRectangle;overflow=hidden;connectable=0;fillColor=none;top=0;left=0;bottom=0;right=0;" vertex="1" parent="pVQqcOyzo2fwdFW1ploU-67">
          <mxGeometry width="30" height="30" as="geometry" />
        </mxCell>
        <mxCell id="pVQqcOyzo2fwdFW1ploU-69" value="..." style="shape=partialRectangle;overflow=hidden;connectable=0;fillColor=none;top=0;left=0;bottom=0;right=0;align=left;spacingLeft=6;" vertex="1" parent="pVQqcOyzo2fwdFW1ploU-67">
          <mxGeometry x="30" width="140" height="30" as="geometry" />
        </mxCell>
        <mxCell id="pVQqcOyzo2fwdFW1ploU-70" value="PersonCreditCard" style="shape=table;startSize=30;container=1;collapsible=1;childLayout=tableLayout;fixedRows=1;rowLines=0;fontStyle=1;align=center;resizeLast=1;" vertex="1" parent="1">
          <mxGeometry x="60" y="740" width="160" height="120" as="geometry" />
        </mxCell>
        <mxCell id="pVQqcOyzo2fwdFW1ploU-71" value="" style="shape=partialRectangle;collapsible=0;dropTarget=0;pointerEvents=0;fillColor=none;points=[[0,0.5],[1,0.5]];portConstraint=eastwest;top=0;left=0;right=0;bottom=1;" vertex="1" parent="pVQqcOyzo2fwdFW1ploU-70">
          <mxGeometry y="30" width="160" height="30" as="geometry" />
        </mxCell>
        <mxCell id="pVQqcOyzo2fwdFW1ploU-72" value="PK" style="shape=partialRectangle;overflow=hidden;connectable=0;fillColor=none;top=0;left=0;bottom=0;right=0;fontStyle=1;" vertex="1" parent="pVQqcOyzo2fwdFW1ploU-71">
          <mxGeometry width="30" height="30" as="geometry" />
        </mxCell>
        <mxCell id="pVQqcOyzo2fwdFW1ploU-73" value="BusinessEntityID" style="shape=partialRectangle;overflow=hidden;connectable=0;fillColor=none;top=0;left=0;bottom=0;right=0;align=left;spacingLeft=6;fontStyle=5;" vertex="1" parent="pVQqcOyzo2fwdFW1ploU-71">
          <mxGeometry x="30" width="130" height="30" as="geometry" />
        </mxCell>
        <mxCell id="pVQqcOyzo2fwdFW1ploU-74" value="" style="shape=partialRectangle;collapsible=0;dropTarget=0;pointerEvents=0;fillColor=none;points=[[0,0.5],[1,0.5]];portConstraint=eastwest;top=0;left=0;right=0;bottom=0;" vertex="1" parent="pVQqcOyzo2fwdFW1ploU-70">
          <mxGeometry y="60" width="160" height="30" as="geometry" />
        </mxCell>
        <mxCell id="pVQqcOyzo2fwdFW1ploU-75" value="FK1" style="shape=partialRectangle;overflow=hidden;connectable=0;fillColor=none;top=0;left=0;bottom=0;right=0;" vertex="1" parent="pVQqcOyzo2fwdFW1ploU-74">
          <mxGeometry width="30" height="30" as="geometry" />
        </mxCell>
        <mxCell id="pVQqcOyzo2fwdFW1ploU-76" value="CreditCardID" style="shape=partialRectangle;overflow=hidden;connectable=0;fillColor=none;top=0;left=0;bottom=0;right=0;align=left;spacingLeft=6;" vertex="1" parent="pVQqcOyzo2fwdFW1ploU-74">
          <mxGeometry x="30" width="130" height="30" as="geometry" />
        </mxCell>
        <mxCell id="pVQqcOyzo2fwdFW1ploU-77" value="" style="shape=partialRectangle;collapsible=0;dropTarget=0;pointerEvents=0;fillColor=none;points=[[0,0.5],[1,0.5]];portConstraint=eastwest;top=0;left=0;right=0;bottom=0;" vertex="1" parent="pVQqcOyzo2fwdFW1ploU-70">
          <mxGeometry y="90" width="160" height="30" as="geometry" />
        </mxCell>
        <mxCell id="pVQqcOyzo2fwdFW1ploU-78" value="" style="shape=partialRectangle;overflow=hidden;connectable=0;fillColor=none;top=0;left=0;bottom=0;right=0;" vertex="1" parent="pVQqcOyzo2fwdFW1ploU-77">
          <mxGeometry width="30" height="30" as="geometry" />
        </mxCell>
        <mxCell id="pVQqcOyzo2fwdFW1ploU-79" value="..." style="shape=partialRectangle;overflow=hidden;connectable=0;fillColor=none;top=0;left=0;bottom=0;right=0;align=left;spacingLeft=6;" vertex="1" parent="pVQqcOyzo2fwdFW1ploU-77">
          <mxGeometry x="30" width="130" height="30" as="geometry" />
        </mxCell>
        <mxCell id="pVQqcOyzo2fwdFW1ploU-80" value="StateProvince" style="shape=table;startSize=30;container=1;collapsible=1;childLayout=tableLayout;fixedRows=1;rowLines=0;fontStyle=1;align=center;resizeLast=1;" vertex="1" parent="1">
          <mxGeometry x="595" y="880" width="210" height="120" as="geometry" />
        </mxCell>
        <mxCell id="pVQqcOyzo2fwdFW1ploU-81" value="" style="shape=partialRectangle;collapsible=0;dropTarget=0;pointerEvents=0;fillColor=none;points=[[0,0.5],[1,0.5]];portConstraint=eastwest;top=0;left=0;right=0;bottom=1;" vertex="1" parent="pVQqcOyzo2fwdFW1ploU-80">
          <mxGeometry y="30" width="210" height="30" as="geometry" />
        </mxCell>
        <mxCell id="pVQqcOyzo2fwdFW1ploU-82" value="PK" style="shape=partialRectangle;overflow=hidden;connectable=0;fillColor=none;top=0;left=0;bottom=0;right=0;fontStyle=1;" vertex="1" parent="pVQqcOyzo2fwdFW1ploU-81">
          <mxGeometry width="30" height="30" as="geometry" />
        </mxCell>
        <mxCell id="pVQqcOyzo2fwdFW1ploU-83" value="StateProvinceID" style="shape=partialRectangle;overflow=hidden;connectable=0;fillColor=none;top=0;left=0;bottom=0;right=0;align=left;spacingLeft=6;fontStyle=5;" vertex="1" parent="pVQqcOyzo2fwdFW1ploU-81">
          <mxGeometry x="30" width="180" height="30" as="geometry" />
        </mxCell>
        <mxCell id="pVQqcOyzo2fwdFW1ploU-84" value="" style="shape=partialRectangle;collapsible=0;dropTarget=0;pointerEvents=0;fillColor=none;points=[[0,0.5],[1,0.5]];portConstraint=eastwest;top=0;left=0;right=0;bottom=0;" vertex="1" parent="pVQqcOyzo2fwdFW1ploU-80">
          <mxGeometry y="60" width="210" height="30" as="geometry" />
        </mxCell>
        <mxCell id="pVQqcOyzo2fwdFW1ploU-85" value="" style="shape=partialRectangle;overflow=hidden;connectable=0;fillColor=none;top=0;left=0;bottom=0;right=0;" vertex="1" parent="pVQqcOyzo2fwdFW1ploU-84">
          <mxGeometry width="30" height="30" as="geometry" />
        </mxCell>
        <mxCell id="pVQqcOyzo2fwdFW1ploU-86" value="CountryRegionCode" style="shape=partialRectangle;overflow=hidden;connectable=0;fillColor=none;top=0;left=0;bottom=0;right=0;align=left;spacingLeft=6;" vertex="1" parent="pVQqcOyzo2fwdFW1ploU-84">
          <mxGeometry x="30" width="180" height="30" as="geometry" />
        </mxCell>
        <mxCell id="pVQqcOyzo2fwdFW1ploU-90" value="" style="shape=partialRectangle;collapsible=0;dropTarget=0;pointerEvents=0;fillColor=none;points=[[0,0.5],[1,0.5]];portConstraint=eastwest;top=0;left=0;right=0;bottom=0;" vertex="1" parent="pVQqcOyzo2fwdFW1ploU-80">
          <mxGeometry y="90" width="210" height="30" as="geometry" />
        </mxCell>
        <mxCell id="pVQqcOyzo2fwdFW1ploU-91" value="" style="shape=partialRectangle;overflow=hidden;connectable=0;fillColor=none;top=0;left=0;bottom=0;right=0;" vertex="1" parent="pVQqcOyzo2fwdFW1ploU-90">
          <mxGeometry width="30" height="30" as="geometry" />
        </mxCell>
        <mxCell id="pVQqcOyzo2fwdFW1ploU-92" value="..." style="shape=partialRectangle;overflow=hidden;connectable=0;fillColor=none;top=0;left=0;bottom=0;right=0;align=left;spacingLeft=6;" vertex="1" parent="pVQqcOyzo2fwdFW1ploU-90">
          <mxGeometry x="30" width="180" height="30" as="geometry" />
        </mxCell>
        <mxCell id="pVQqcOyzo2fwdFW1ploU-93" value="CountryRegion" style="shape=table;startSize=30;container=1;collapsible=1;childLayout=tableLayout;fixedRows=1;rowLines=0;fontStyle=1;align=center;resizeLast=1;" vertex="1" parent="1">
          <mxGeometry x="370" y="960" width="180" height="90" as="geometry" />
        </mxCell>
        <mxCell id="pVQqcOyzo2fwdFW1ploU-94" value="" style="shape=partialRectangle;collapsible=0;dropTarget=0;pointerEvents=0;fillColor=none;points=[[0,0.5],[1,0.5]];portConstraint=eastwest;top=0;left=0;right=0;bottom=1;" vertex="1" parent="pVQqcOyzo2fwdFW1ploU-93">
          <mxGeometry y="30" width="180" height="30" as="geometry" />
        </mxCell>
        <mxCell id="pVQqcOyzo2fwdFW1ploU-95" value="PK" style="shape=partialRectangle;overflow=hidden;connectable=0;fillColor=none;top=0;left=0;bottom=0;right=0;fontStyle=1;" vertex="1" parent="pVQqcOyzo2fwdFW1ploU-94">
          <mxGeometry width="30" height="30" as="geometry" />
        </mxCell>
        <mxCell id="pVQqcOyzo2fwdFW1ploU-96" value="CountryRegionCode" style="shape=partialRectangle;overflow=hidden;connectable=0;fillColor=none;top=0;left=0;bottom=0;right=0;align=left;spacingLeft=6;fontStyle=5;" vertex="1" parent="pVQqcOyzo2fwdFW1ploU-94">
          <mxGeometry x="30" width="150" height="30" as="geometry" />
        </mxCell>
        <mxCell id="pVQqcOyzo2fwdFW1ploU-100" value="" style="shape=partialRectangle;collapsible=0;dropTarget=0;pointerEvents=0;fillColor=none;points=[[0,0.5],[1,0.5]];portConstraint=eastwest;top=0;left=0;right=0;bottom=0;" vertex="1" parent="pVQqcOyzo2fwdFW1ploU-93">
          <mxGeometry y="60" width="180" height="30" as="geometry" />
        </mxCell>
        <mxCell id="pVQqcOyzo2fwdFW1ploU-101" value="" style="shape=partialRectangle;overflow=hidden;connectable=0;fillColor=none;top=0;left=0;bottom=0;right=0;" vertex="1" parent="pVQqcOyzo2fwdFW1ploU-100">
          <mxGeometry width="30" height="30" as="geometry" />
        </mxCell>
        <mxCell id="pVQqcOyzo2fwdFW1ploU-102" value="..." style="shape=partialRectangle;overflow=hidden;connectable=0;fillColor=none;top=0;left=0;bottom=0;right=0;align=left;spacingLeft=6;" vertex="1" parent="pVQqcOyzo2fwdFW1ploU-100">
          <mxGeometry x="30" width="150" height="30" as="geometry" />
        </mxCell>
        <mxCell id="pVQqcOyzo2fwdFW1ploU-103" value="Person" style="shape=table;startSize=30;container=1;collapsible=1;childLayout=tableLayout;fixedRows=1;rowLines=0;fontStyle=1;align=center;resizeLast=1;" vertex="1" parent="1">
          <mxGeometry x="70" y="370" width="210" height="90" as="geometry" />
        </mxCell>
        <mxCell id="pVQqcOyzo2fwdFW1ploU-104" value="" style="shape=partialRectangle;collapsible=0;dropTarget=0;pointerEvents=0;fillColor=none;points=[[0,0.5],[1,0.5]];portConstraint=eastwest;top=0;left=0;right=0;bottom=1;" vertex="1" parent="pVQqcOyzo2fwdFW1ploU-103">
          <mxGeometry y="30" width="210" height="30" as="geometry" />
        </mxCell>
        <mxCell id="pVQqcOyzo2fwdFW1ploU-105" value="PK" style="shape=partialRectangle;overflow=hidden;connectable=0;fillColor=none;top=0;left=0;bottom=0;right=0;fontStyle=1;" vertex="1" parent="pVQqcOyzo2fwdFW1ploU-104">
          <mxGeometry width="30" height="30" as="geometry" />
        </mxCell>
        <mxCell id="pVQqcOyzo2fwdFW1ploU-106" value="BusinessEntityID" style="shape=partialRectangle;overflow=hidden;connectable=0;fillColor=none;top=0;left=0;bottom=0;right=0;align=left;spacingLeft=6;fontStyle=5;" vertex="1" parent="pVQqcOyzo2fwdFW1ploU-104">
          <mxGeometry x="30" width="180" height="30" as="geometry" />
        </mxCell>
        <mxCell id="pVQqcOyzo2fwdFW1ploU-107" value="" style="shape=partialRectangle;collapsible=0;dropTarget=0;pointerEvents=0;fillColor=none;points=[[0,0.5],[1,0.5]];portConstraint=eastwest;top=0;left=0;right=0;bottom=0;" vertex="1" parent="pVQqcOyzo2fwdFW1ploU-103">
          <mxGeometry y="60" width="210" height="30" as="geometry" />
        </mxCell>
        <mxCell id="pVQqcOyzo2fwdFW1ploU-108" value="" style="shape=partialRectangle;overflow=hidden;connectable=0;fillColor=none;top=0;left=0;bottom=0;right=0;" vertex="1" parent="pVQqcOyzo2fwdFW1ploU-107">
          <mxGeometry width="30" height="30" as="geometry" />
        </mxCell>
        <mxCell id="pVQqcOyzo2fwdFW1ploU-109" value="..." style="shape=partialRectangle;overflow=hidden;connectable=0;fillColor=none;top=0;left=0;bottom=0;right=0;align=left;spacingLeft=6;" vertex="1" parent="pVQqcOyzo2fwdFW1ploU-107">
          <mxGeometry x="30" width="180" height="30" as="geometry" />
        </mxCell>
        <mxCell id="pVQqcOyzo2fwdFW1ploU-113" value="Employee" style="shape=table;startSize=30;container=1;collapsible=1;childLayout=tableLayout;fixedRows=1;rowLines=0;fontStyle=1;align=center;resizeLast=1;" vertex="1" parent="1">
          <mxGeometry x="80" y="200" width="210" height="120" as="geometry" />
        </mxCell>
        <mxCell id="pVQqcOyzo2fwdFW1ploU-114" value="" style="shape=partialRectangle;collapsible=0;dropTarget=0;pointerEvents=0;fillColor=none;points=[[0,0.5],[1,0.5]];portConstraint=eastwest;top=0;left=0;right=0;bottom=1;" vertex="1" parent="pVQqcOyzo2fwdFW1ploU-113">
          <mxGeometry y="30" width="210" height="30" as="geometry" />
        </mxCell>
        <mxCell id="pVQqcOyzo2fwdFW1ploU-115" value="PK" style="shape=partialRectangle;overflow=hidden;connectable=0;fillColor=none;top=0;left=0;bottom=0;right=0;fontStyle=1;" vertex="1" parent="pVQqcOyzo2fwdFW1ploU-114">
          <mxGeometry width="30" height="30" as="geometry" />
        </mxCell>
        <mxCell id="pVQqcOyzo2fwdFW1ploU-116" value="BusinessEntityID" style="shape=partialRectangle;overflow=hidden;connectable=0;fillColor=none;top=0;left=0;bottom=0;right=0;align=left;spacingLeft=6;fontStyle=5;" vertex="1" parent="pVQqcOyzo2fwdFW1ploU-114">
          <mxGeometry x="30" width="180" height="30" as="geometry" />
        </mxCell>
        <mxCell id="pVQqcOyzo2fwdFW1ploU-117" value="" style="shape=partialRectangle;collapsible=0;dropTarget=0;pointerEvents=0;fillColor=none;points=[[0,0.5],[1,0.5]];portConstraint=eastwest;top=0;left=0;right=0;bottom=0;" vertex="1" parent="pVQqcOyzo2fwdFW1ploU-113">
          <mxGeometry y="60" width="210" height="30" as="geometry" />
        </mxCell>
        <mxCell id="pVQqcOyzo2fwdFW1ploU-118" value="" style="shape=partialRectangle;overflow=hidden;connectable=0;fillColor=none;top=0;left=0;bottom=0;right=0;" vertex="1" parent="pVQqcOyzo2fwdFW1ploU-117">
          <mxGeometry width="30" height="30" as="geometry" />
        </mxCell>
        <mxCell id="pVQqcOyzo2fwdFW1ploU-119" value="SalesOrderID" style="shape=partialRectangle;overflow=hidden;connectable=0;fillColor=none;top=0;left=0;bottom=0;right=0;align=left;spacingLeft=6;" vertex="1" parent="pVQqcOyzo2fwdFW1ploU-117">
          <mxGeometry x="30" width="180" height="30" as="geometry" />
        </mxCell>
        <mxCell id="pVQqcOyzo2fwdFW1ploU-120" value="" style="shape=partialRectangle;collapsible=0;dropTarget=0;pointerEvents=0;fillColor=none;points=[[0,0.5],[1,0.5]];portConstraint=eastwest;top=0;left=0;right=0;bottom=0;" vertex="1" parent="pVQqcOyzo2fwdFW1ploU-113">
          <mxGeometry y="90" width="210" height="30" as="geometry" />
        </mxCell>
        <mxCell id="pVQqcOyzo2fwdFW1ploU-121" value="" style="shape=partialRectangle;overflow=hidden;connectable=0;fillColor=none;top=0;left=0;bottom=0;right=0;" vertex="1" parent="pVQqcOyzo2fwdFW1ploU-120">
          <mxGeometry width="30" height="30" as="geometry" />
        </mxCell>
        <mxCell id="pVQqcOyzo2fwdFW1ploU-122" value="ProductID" style="shape=partialRectangle;overflow=hidden;connectable=0;fillColor=none;top=0;left=0;bottom=0;right=0;align=left;spacingLeft=6;" vertex="1" parent="pVQqcOyzo2fwdFW1ploU-120">
          <mxGeometry x="30" width="180" height="30" as="geometry" />
        </mxCell>
        <mxCell id="pVQqcOyzo2fwdFW1ploU-123" value="SalesPerson" style="shape=table;startSize=30;container=1;collapsible=1;childLayout=tableLayout;fixedRows=1;rowLines=0;fontStyle=1;align=center;resizeLast=1;" vertex="1" parent="1">
          <mxGeometry x="310" y="80" width="210" height="90" as="geometry" />
        </mxCell>
        <mxCell id="pVQqcOyzo2fwdFW1ploU-124" value="" style="shape=partialRectangle;collapsible=0;dropTarget=0;pointerEvents=0;fillColor=none;points=[[0,0.5],[1,0.5]];portConstraint=eastwest;top=0;left=0;right=0;bottom=1;" vertex="1" parent="pVQqcOyzo2fwdFW1ploU-123">
          <mxGeometry y="30" width="210" height="30" as="geometry" />
        </mxCell>
        <mxCell id="pVQqcOyzo2fwdFW1ploU-125" value="PK" style="shape=partialRectangle;overflow=hidden;connectable=0;fillColor=none;top=0;left=0;bottom=0;right=0;fontStyle=1;" vertex="1" parent="pVQqcOyzo2fwdFW1ploU-124">
          <mxGeometry width="30" height="30" as="geometry" />
        </mxCell>
        <mxCell id="pVQqcOyzo2fwdFW1ploU-126" value="BusinessEntityID" style="shape=partialRectangle;overflow=hidden;connectable=0;fillColor=none;top=0;left=0;bottom=0;right=0;align=left;spacingLeft=6;fontStyle=5;" vertex="1" parent="pVQqcOyzo2fwdFW1ploU-124">
          <mxGeometry x="30" width="180" height="30" as="geometry" />
        </mxCell>
        <mxCell id="pVQqcOyzo2fwdFW1ploU-127" value="" style="shape=partialRectangle;collapsible=0;dropTarget=0;pointerEvents=0;fillColor=none;points=[[0,0.5],[1,0.5]];portConstraint=eastwest;top=0;left=0;right=0;bottom=0;" vertex="1" parent="pVQqcOyzo2fwdFW1ploU-123">
          <mxGeometry y="60" width="210" height="30" as="geometry" />
        </mxCell>
        <mxCell id="pVQqcOyzo2fwdFW1ploU-128" value="" style="shape=partialRectangle;overflow=hidden;connectable=0;fillColor=none;top=0;left=0;bottom=0;right=0;" vertex="1" parent="pVQqcOyzo2fwdFW1ploU-127">
          <mxGeometry width="30" height="30" as="geometry" />
        </mxCell>
        <mxCell id="pVQqcOyzo2fwdFW1ploU-129" value="..." style="shape=partialRectangle;overflow=hidden;connectable=0;fillColor=none;top=0;left=0;bottom=0;right=0;align=left;spacingLeft=6;" vertex="1" parent="pVQqcOyzo2fwdFW1ploU-127">
          <mxGeometry x="30" width="180" height="30" as="geometry" />
        </mxCell>
        <mxCell id="pVQqcOyzo2fwdFW1ploU-133" value="" style="endArrow=classic;html=1;entryX=0.5;entryY=0;entryDx=0;entryDy=0;" edge="1" parent="1">
          <mxGeometry width="50" height="50" relative="1" as="geometry">
            <mxPoint x="407.5" y="220" as="sourcePoint" />
            <mxPoint x="462.5" y="280" as="targetPoint" />
            <Array as="points" />
          </mxGeometry>
        </mxCell>
        <mxCell id="pVQqcOyzo2fwdFW1ploU-134" value="Tabela Fact" style="edgeLabel;html=1;align=center;verticalAlign=middle;resizable=0;points=[];" vertex="1" connectable="0" parent="pVQqcOyzo2fwdFW1ploU-133">
          <mxGeometry x="0.4519" y="1" relative="1" as="geometry">
            <mxPoint x="-6" as="offset" />
          </mxGeometry>
        </mxCell>
        <mxCell id="pVQqcOyzo2fwdFW1ploU-135" style="edgeStyle=orthogonalEdgeStyle;rounded=0;orthogonalLoop=1;jettySize=auto;html=1;exitX=1;exitY=0.5;exitDx=0;exitDy=0;entryX=0;entryY=0.5;entryDx=0;entryDy=0;" edge="1" parent="1" source="pVQqcOyzo2fwdFW1ploU-124" target="C-vyLk0tnHw3VtMMgP7b-6">
          <mxGeometry relative="1" as="geometry" />
        </mxCell>
        <mxCell id="pVQqcOyzo2fwdFW1ploU-136" style="edgeStyle=orthogonalEdgeStyle;rounded=0;orthogonalLoop=1;jettySize=auto;html=1;exitX=0;exitY=0.5;exitDx=0;exitDy=0;entryX=0;entryY=0.5;entryDx=0;entryDy=0;" edge="1" parent="1" source="pVQqcOyzo2fwdFW1ploU-114" target="pVQqcOyzo2fwdFW1ploU-124">
          <mxGeometry relative="1" as="geometry" />
        </mxCell>
        <mxCell id="pVQqcOyzo2fwdFW1ploU-137" style="edgeStyle=orthogonalEdgeStyle;rounded=0;orthogonalLoop=1;jettySize=auto;html=1;exitX=0;exitY=0.5;exitDx=0;exitDy=0;entryX=1;entryY=0.5;entryDx=0;entryDy=0;" edge="1" parent="1" source="pVQqcOyzo2fwdFW1ploU-104" target="pVQqcOyzo2fwdFW1ploU-114">
          <mxGeometry relative="1" as="geometry" />
        </mxCell>
        <mxCell id="pVQqcOyzo2fwdFW1ploU-138" style="edgeStyle=orthogonalEdgeStyle;rounded=0;orthogonalLoop=1;jettySize=auto;html=1;exitX=1;exitY=0.5;exitDx=0;exitDy=0;entryX=0;entryY=0.5;entryDx=0;entryDy=0;" edge="1" parent="1" source="C-vyLk0tnHw3VtMMgP7b-24" target="C-vyLk0tnHw3VtMMgP7b-9">
          <mxGeometry relative="1" as="geometry" />
        </mxCell>
      </root>
    </mxGraphModel>
  </diagram>
</mxfile>
